<?xml version="1.0" standalone="no"?>
<!DOCTYPE svg PUBLIC "-//W3C//DTD SVG 20010904//EN"
 "http://www.w3.org/TR/2001/REC-SVG-20010904/DTD/svg10.dtd">
<svg version="1.0" xmlns="http://www.w3.org/2000/svg"
 width="700.000000pt" height="700.000000pt" viewBox="0 0 700.000000 700.000000"
 preserveAspectRatio="xMidYMid meet">
<metadata>
Created by potrace 1.11, written by Peter Selinger 2001-2013
</metadata>
<g transform="translate(0.000000,700.000000) scale(0.100000,-0.100000)"
fill="#000000" stroke="none">
<path d="M1099 6673 c0 -10 -1 -1417 -1 -3128 l0 -3110 662 0 c432 0 664 3
668 10 4 5 7 96 8 200 1 105 2 193 3 197 0 4 27 -19 59 -50 165 -164 387 -304
604 -383 89 -32 255 -74 328 -83 25 -4 63 -8 85 -11 48 -6 342 -6 405 0 269
27 481 86 715 199 226 110 390 229 575 415 262 263 450 575 568 942 36 113 77
279 87 354 30 217 33 266 30 485 -2 129 -6 251 -9 270 -4 19 -11 67 -17 105
-6 39 -20 108 -30 155 -11 47 -22 94 -24 105 -9 41 -84 262 -110 325 -82 198
-229 439 -373 611 -105 125 -303 308 -404 374 -8 6 -40 26 -69 46 -214 141
-493 254 -729 294 -19 3 -42 8 -50 10 -67 19 -393 26 -545 13 -416 -37 -795
-213 -1052 -488 l-43 -45 0 160 c0 88 -1 584 0 1103 l0 942 -670 0 c-631 0
-670 -1 -671 -17z m2617 -2933 c297 -59 523 -205 671 -432 211 -323 237 -820
61 -1173 -176 -352 -530 -560 -948 -556 -286 3 -506 76 -698 233 -236 193
-366 499 -365 858 2 447 192 783 551 974 92 49 210 82 392 110 42 7 284 -3
336 -14z"/>
</g>
</svg>
